# xmcd
#
# Track frame offsets: 
#        150
#        16810
#        29311
#        45121
#        60193
#        80064
#        102004
#        123150
#        143042
#        166821
#
# Disc length: 2558 seconds
#
# Revision: 0
# Processed by: cddbd v1.5.2PL0 Copyright (c) Steve Scherf et al.
# Submitted via: ExactAudioCopy v1.3
#
DISCID=6709fc0a
DTITLE=Jay O'Rourke - Sumpthin' Good
DYEAR=2018
DGENRE=British Blues
TTITLE0=Just Want More
TTITLE1=Blackout
TTITLE2=Wild Wild World
TTITLE3=Superstar
TTITLE4=House Full Of Strangers
TTITLE5=Bullshit
TTITLE6=Sumpthin' Good
TTITLE7=Oh Yea
TTITLE8=Old Dog
TTITLE9=Junkyard
EXTD=
EXTT0=
EXTT1=
EXTT2=
EXTT3=
EXTT4=
EXTT5=
EXTT6=
EXTT7=
EXTT8=
EXTT9=
PLAYORDER=
